<?xml version="1.0" encoding="utf-8"?>
<!-- Generator: Adobe Illustrator 26.0.2, SVG Export Plug-In . SVG Version: 6.00 Build 0)  -->
<svg version="1.1" id="Layer_2" xmlns="http://www.w3.org/2000/svg" xmlns:xlink="http://www.w3.org/1999/xlink" x="0px" y="0px"
	 viewBox="0 0 68.3 94.5" style="enable-background:new 0 0 68.3 94.5;" xml:space="preserve">
<style type="text/css">
	.st0{fill:#EC1C24;}
	.st1{fill:#FEFCFC;}
	.st2{fill:#FEFBFB;}
	.st3{fill:#FEFDFD;}
	.st4{fill:#FEF9F9;}
</style>
<path class="st0" d="M34.4,81.5c-18.7,0.1-34-15-34.1-33.6C0.1,29,15.2,13.8,34.1,13.7c18.8-0.1,34.4,15.4,34.2,34
	C68.2,66.4,53.1,81.4,34.4,81.5z"/>
<path class="st1" d="M41.5,47.5c0-2.5,0-5.1,0-7.6c0-1.1,0.3-1.6,1.5-1.6c2.6,0.1,5.1,0.1,7.7,0c1.1,0,1.4,0.3,1.4,1.4
	c0,1.1-0.4,1.5-1.5,1.4c-1.4-0.1-2.9,0.1-4.4,0c-1.7-0.2-2.2,0.5-2,2.1c0,0.2,0,0.4,0,0.6c-0.4,2.1,0.4,3.1,2.6,2.7
	c0.8-0.1,1.7,0,2.5,0c0.9,0,1.2,0.2,1.2,1.2c0,0.9-0.3,1.3-1.2,1.2c-0.4,0-0.8,0-1.2,0c-4.2,0-4.2,0-3.9,4.2
	c0.1,0.9,0.3,1.2,1.2,1.1c1.8-0.1,3.6,0,5.4,0c0.9,0,1.2,0.3,1.2,1.2c-0.1,0.8,0.1,1.6-1.1,1.5c-2.8,0-5.5,0-8.3,0
	c-1.1,0-1.2-0.6-1.2-1.5C41.5,52.8,41.5,50.2,41.5,47.5z"/>
<path class="st2" d="M36.4,56.6c-1.8-2.9-2.7-6.3-4.1-9.4c-1.1-2.4-2-4.9-3.5-7.3c0,2.8,0,5.5,0,8.3c0,2.4,0,4.8,0,7.2
	c0,0.8-0.1,1.3-1.1,1.3c-1,0-0.8-0.7-0.8-1.3c0-5.1,0-10.2,0-15.3c0-0.7-0.6-1.9,0.8-1.8c1.2,0.1,2.7-0.8,3.4,1
	c1.5,3.7,3,7.4,4.5,11.1c0.7,1.8,1.4,3.7,2.1,5.6C37.7,57.3,37,56.8,36.4,56.6z"/>
<path class="st3" d="M63.3,56.7c-3.7-2.6-7.3-5-10.8-7.6c-1-0.8-1-2.2,0.1-3c3.5-2.6,7.1-5,10.7-7.6c0.6,2.2,0.1,3.6-1.8,4.7
	c-2.1,1.3-4,2.8-6.2,4.4c2.2,1.6,4.1,3.2,6.2,4.4C63.4,53.1,63.9,54.5,63.3,56.7z"/>
<path class="st2" d="M25.3,38.4c-2.3,5.5-4.4,10.8-6.7,16.5c2,0,3.7,0,5.5,0c0.6,0,1.2,0,1.2,0.9c0,0.8-0.4,1.1-1.1,1
	c-2.4,0-4.7,0-7.1,0c-0.9,0-1.3-0.2-0.9-1.2c2.3-5.5,4.6-10.9,6.7-16.4C23.5,38,24.3,38.5,25.3,38.4z"/>
<path class="st4" d="M36.4,56.6c0.5,0,1.1,0,1.4-0.6c0.7-0.7,0.3-1.6,0.3-2.4c0-4.6,0-9.2,0-13.8c0-0.7-0.3-1.6,1-1.5
	c1.2,0,1,0.8,1,1.6c0,4.8-0.1,9.6,0.1,14.4c0.1,2.1-0.5,2.9-2.6,2.5C37.2,56.8,36.8,56.7,36.4,56.6z"/>
</svg>
