<?xml version="1.0" encoding="utf-8"?>
<!-- Generator: Adobe Illustrator 26.0.2, SVG Export Plug-In . SVG Version: 6.00 Build 0)  -->
<svg version="1.1" id="Layer_1" xmlns="http://www.w3.org/2000/svg" xmlns:xlink="http://www.w3.org/1999/xlink" x="0px" y="0px"
	 viewBox="0 0 324 46" style="enable-background:new 0 0 324 46;" xml:space="preserve">
<style type="text/css">
	.st0{fill:none;stroke:#CACACA;}
	.st1{fill:#0068C7;}
	.st2{fill:#00569E;}
	.st3{fill:#3EAE2B;}
	.st4{fill:#EC1C24;}
	.st5{fill:#514E4F;}
	.st6{fill:#524F50;}
	.st7{fill:#504D4E;}
	.st8{fill:#4F4C4D;}
	.st9{fill:#535051;}
	.st10{fill:#525051;}
	.st11{fill:#565354;}
	.st12{fill:#514F50;}
	.st13{fill:#555253;}
	.st14{fill:#5B595A;}
	.st15{fill:#5F5C5D;}
	.st16{fill:#6C696A;}
	.st17{fill:#FEFCFC;}
	.st18{fill:#FEFBFB;}
	.st19{fill:#FEFDFD;}
	.st20{fill:#FEF9F9;}
	.st21{fill:#FDFDFD;}
	.st22{fill:#FAFAFA;}
	.st23{fill:#F7F7F7;}
	.st24{fill:#F1F1F1;}
	.st25{fill:#F2F1F1;}
	.st26{fill:#EDECEC;}
	.st27{fill:#F6F6F6;}
	.st28{fill:#F2F2F2;}
	.st29{fill:#F5F5F5;}
	.st30{fill:#E6E5E5;}
</style>
<line class="st0" x1="136.6" y1="1.9" x2="136.6" y2="43.4"/>
<g>
	<path class="st1" d="M37,22h7v9.7c-1.2,0.8-3.1,1.5-5.9,1.5c-6.4,0-8.8-3.2-8.8-10.5c0-6.6,2.4-10.5,8.8-10.5
		c2.8,0,4.5,0.7,5.9,1.5l-0.3,2.4c-1.2-0.7-3.2-1.5-5.6-1.5c-4.7,0-6.2,2.7-6.2,8.2c0,5.2,1.3,8.2,6.3,8.2c1.5,0,2.7-0.3,3.7-0.7
		v-6.1h-4.7L37,22L37,22z"/>
	<path class="st1" d="M48,10.9h2.4v17.3c0,2.1,0.6,2.7,1.7,2.7c0.6,0,1.1-0.1,1.4-0.2l0.3,2.1c-0.4,0.2-1.1,0.3-1.9,0.3
		c-2.2,0-3.9-1.1-3.9-4.5L48,10.9L48,10.9z"/>
	<path class="st1" d="M67.6,32.3c-1.5,0.5-3.7,0.9-5.9,0.9c-3.7,0-6.2-1.2-6.2-4.8c0-3.5,2.5-4.8,6.7-4.8h3.1v-1.5
		c0-2.1-1.5-2.8-3.9-2.8c-1.8,0-3.2,0.3-4.2,0.6l-0.3-2.2c1.2-0.3,2.8-0.6,4.7-0.6c3.6,0,6.2,1.3,6.2,5.1L67.6,32.3L67.6,32.3z
		 M65.3,25.5h-3c-2.8,0-4.4,0.7-4.4,2.9c0,2.2,1.5,2.8,3.8,2.8c1.1,0,2.6-0.2,3.6-0.5V25.5z"/>
	<path class="st1" d="M71.3,18.2c1.4-0.6,3.9-1.1,6.5-1.1c3.9,0,6.4,1.4,6.4,6.2V33h-2.4v-9.7c0-3.4-1.6-4-4.1-4
		c-1.8,0-3.1,0.2-4.1,0.6v12.9h-2.4V18.2z"/>
	<path class="st1" d="M94.1,17.1c1.7,0,3,0.3,4.1,0.8l-0.4,2.2c-0.8-0.4-1.9-0.8-3.6-0.8c-3.9,0-4.9,2.4-4.9,5.8
		c0,4.1,1.5,5.8,5.2,5.8c1.2,0,2.5-0.2,3.7-0.7l0.3,2.2c-1.2,0.5-2.8,0.7-4.2,0.7c-4.7,0-7.4-2.7-7.4-7.9
		C86.8,20.4,89,17.1,94.1,17.1z"/>
	<path class="st1" d="M113.4,26.1h-10.6v0.2c0,3.2,1.9,4.7,5.1,4.7c1.8,0,3.7-0.5,4.9-1.1l0.3,2.2c-1.5,0.6-3.3,1.1-5.3,1.1
		c-4.9,0-7.5-2.5-7.5-7.9c0-4.5,1.6-8,6.7-8c4.1,0,6.5,2.3,6.5,6.8C113.7,24.6,113.7,25.4,113.4,26.1z M102.9,24.1h8.6v-0.2
		c0-3.3-1.7-4.7-4.3-4.7c-2.6,0-4.3,1.3-4.3,4.7L102.9,24.1L102.9,24.1z"/>
</g>
<g>
	<path class="st2" d="M9.8,34.9h2.5c0.4,0,0.8-0.2,1.1-0.5l11.4-12.9l0,0l0,0L14.5,9.6c-0.2-0.3-0.6-0.5-1.1-0.5h-2.5l10.7,12.4
		L9.8,34.9z"/>
</g>
<g>
	<path class="st3" d="M6.1,14l6.5,7.5l-6.5,7.1h2.5c0.4,0,0.8-0.2,1.1-0.5l6.1-6.7l0,0l-6.1-7.1C9.5,14.2,9.1,14,8.8,14
		C8.8,14,6.1,14,6.1,14z"/>
</g>
<g>
	<path class="st1" d="M10.3,10.5H7.7l9.5,10.9L7.7,31.8h2.5c0.4,0,0.8-0.2,1.1-0.5l9-9.8l0,0l-9.2-10.6
		C10.8,10.6,10.6,10.5,10.3,10.5z"/>
</g>
<g>
	<path class="st4" d="M175.6,43.2c-11.4,0.1-20.6-9.1-20.7-20.4c-0.1-11.5,9.1-20.7,20.5-20.8c11.4,0,20.8,9.4,20.8,20.6
		C196.2,34.1,187,43.2,175.6,43.2z"/>
	<path class="st5" d="M266.3,16.6c0,1.6,0,2.9,0,4.2c0,0.4,0.1,0.9-0.6,0.8c-0.6,0-0.5-0.5-0.5-0.8c0-1.8,0-3.5,0-5.3
		c0-0.3-0.2-0.8,0.3-0.9c0.5-0.1,0.9,0.1,1.1,0.6c0.9,1.3,1.8,2.6,3,3.9c0-1.2,0-2.3,0-3.5c0-0.4-0.2-1,0.6-1c0.8,0,0.5,0.6,0.5,1
		c0,1.7,0,3.4,0,5.1c0,0.3,0.2,0.8-0.4,0.9c-0.4,0.1-0.7-0.1-0.9-0.5C268.5,19.7,267.5,18.3,266.3,16.6z"/>
	<path class="st6" d="M221.7,26.4c0,1.2,0,2.5,0,3.7c0,0.4,0.2,0.9-0.5,0.9c-0.7,0-0.5-0.5-0.5-0.9c0-1.7,0-3.4,0-5.1
		c0-0.3-0.2-0.8,0.4-0.9c0.5-0.1,0.8,0.1,1,0.5c0.9,1.3,1.8,2.7,3,3.9c0-1.2,0-2.4,0-3.6c0-0.4,0-0.9,0.6-0.8c0.6,0,0.5,0.5,0.5,0.8
		c0,1.8,0,3.5,0,5.3c0,0.3,0.1,0.7-0.3,0.8c-0.4,0.1-0.8,0-1.1-0.4c-1-1.4-1.9-2.8-2.9-4.2C221.9,26.3,221.8,26.3,221.7,26.4z"/>
	<path class="st7" d="M243.1,29c0-1.6,0-2.8,0-4.1c0-0.4-0.2-0.9,0.5-0.9c0.7,0,0.5,0.6,0.5,0.9c0,1.7,0,3.4,0,5.1
		c0,0.3,0.2,0.7-0.3,0.9c-0.5,0.1-0.8-0.1-1.1-0.5c-1-1.4-2-2.9-3.2-4.6c0,1.7,0,2.9,0,4.2c0,0.4,0.2,0.9-0.5,0.9
		c-0.6,0-0.5-0.5-0.5-0.8c0-1.8,0-3.5,0-5.3c0-0.3-0.2-0.7,0.3-0.8c0.4-0.1,0.8,0,1.1,0.4C241,25.9,242,27.3,243.1,29z"/>
	<path class="st8" d="M294.3,16.5c0,1.7,0,3,0,4.3c0,0.3,0.2,0.8-0.5,0.8c-0.7,0-0.5-0.5-0.5-0.9c0-1.8,0-3.5,0-5.3
		c0-0.3-0.3-0.8,0.3-0.9c0.4-0.1,0.8,0.1,1,0.5c0.8,1.3,1.7,2.5,2.6,3.7c0.1,0.2,0.2,0.4,0.5,0.3c0-1.3,0-2.5,0-3.8
		c0-0.4-0.1-0.8,0.5-0.7c0.6,0,0.5,0.4,0.5,0.8c0,1.8,0,3.6,0,5.4c0,0.3,0.2,0.7-0.3,0.8c-0.4,0.1-0.8,0-1.1-0.5
		C296.5,19.7,295.5,18.2,294.3,16.5z"/>
	<path class="st7" d="M246.8,18c0,2.1-1.2,3.6-3.1,3.6c-1.9,0-3.2-1.3-3.3-3.5c0-2,1.3-3.6,3.2-3.6C245.5,14.5,246.8,15.9,246.8,18z
		"/>
	<path class="st7" d="M224,18.1c0,2.2-1.2,3.5-3.2,3.5c-2,0-3.2-1.3-3.2-3.5c0-2.1,1.3-3.6,3.2-3.6C222.8,14.5,224,15.9,224,18.1z"
		/>
	<path class="st7" d="M292.1,18.1c0,2.2-1.2,3.5-3.2,3.5c-1.9,0-3.2-1.4-3.2-3.5c0-2.1,1.4-3.6,3.2-3.6
		C290.9,14.5,292.1,15.9,292.1,18.1z"/>
	<path class="st7" d="M261.8,18.1c0,2.1-1.3,3.5-3.2,3.5c-1.9,0-3.2-1.4-3.2-3.5c0-2.1,1.3-3.6,3.2-3.6
		C260.5,14.5,261.8,16,261.8,18.1z"/>
	<path class="st9" d="M245.6,27.5c0-0.9,0-1.8,0-2.8c0-0.4,0-0.7,0.6-0.7c0.5,0,0.4,0.4,0.5,0.7c0,0.1,0,0.2,0,0.3
		c0,1.9,0,1.9,1.9,1.9c0.9,0,1.2-0.2,1.2-1.2c0-0.5-0.6-1.7,0.6-1.6c1,0,0.4,1.1,0.5,1.6c0.1,1.5,0,3,0,4.5c0,0.4,0,0.8-0.6,0.8
		c-0.6,0-0.6-0.4-0.5-0.8c0-0.1,0-0.2,0-0.3c0-2-0.6-2.4-2.6-2c-0.4,0.1-0.5,0.3-0.5,0.6c0,0.5,0,1,0,1.5c0,0.4,0.2,0.9-0.5,0.9
		c-0.7,0-0.5-0.5-0.6-0.9C245.6,29.3,245.6,28.4,245.6,27.5z"/>
	<path class="st10" d="M229.6,21.5c-1.1,0.5-1.3-0.3-1.8-1c-0.4-0.6-0.5-1.8-1.3-1.6c-0.7,0.2-0.2,1.2-0.3,1.9
		c-0.1,0.3,0.1,0.8-0.5,0.8c-0.7,0-0.6-0.4-0.6-0.8c0-1.8,0-3.6,0-5.4c0-0.8,0.3-0.9,1-0.9c2.1,0,3,0.7,2.8,2.2c0,0.1,0,0.3-0.1,0.4
		c-1.4,1.4-0.1,2.5,0.5,3.7C229.4,21,229.5,21.2,229.6,21.5z"/>
	<path class="st8" d="M202.8,27.5c0-0.3-0.1-0.7,0-1c0.2-0.8-0.6-2.1,0.4-2.3c1.4-0.3,2.9-0.3,4.1,1c0.9,1.1,1,3.3,0.1,4.6
		c-0.7,1-3,1.7-4.2,1.3c-0.5-0.2-0.4-0.5-0.4-0.8C202.8,29.3,202.8,28.4,202.8,27.5z"/>
	<path class="st7" d="M212.9,18c0-0.6-0.1-1.2,0-1.7c0.1-0.5-0.4-1.4,0.3-1.6c0.9-0.2,2-0.4,2.9,0.4c0.6,0.6,0.7,1.4,0.3,2.1
		c-0.2,0.5-0.2,0.7,0.1,1.1c1.1,1.3,0.3,3-1.3,3.3c-0.2,0-0.5,0-0.7,0.1c-1.3,0.2-1.7-0.3-1.5-1.5C213,19.4,212.9,18.7,212.9,18z"/>
	<path class="st9" d="M262.6,30.9c-1.1,0.4-1.4-0.3-1.8-0.9c-0.4-0.6-0.5-1.8-1.4-1.7c-0.6,0.1-0.2,1.3-0.3,1.9c0,0.4,0,0.8-0.6,0.8
		c-0.5,0-0.5-0.4-0.5-0.7c0-1.8,0-3.7,0-5.5c0-0.5,0.2-0.7,0.7-0.7c1.9-0.1,2.9,0.3,3,1.6c0,0.4,0.1,0.9-0.1,1.1
		c-1.2,1.1-0.3,2,0.2,3C262.1,30.1,262.3,30.5,262.6,30.9z"/>
	<path class="st6" d="M232.8,29.2c-0.1,0.5,0.3,1.3-0.6,1.6c-1.3,0.4-2.6,0.6-3.7-0.3c-1.3-1-1.6-3.3-0.7-4.8c0.8-1.4,2.5-2,4.2-1.5
		c0.5,0.1,0.7,0.4,0.6,0.9c-0.2,0.7-0.6,0.2-0.9,0.1c-1.6-0.3-2.8,0.2-3.1,1.5c-0.4,1.6,0.2,3,1.5,3.4c1.1,0.3,1.6,0,1.6-1.1
		c0-0.2,0-0.4,0-0.6c0-0.4-0.1-0.8,0.5-0.8c0.7,0,0.6,0.4,0.6,0.9C232.8,28.6,232.8,28.8,232.8,29.2z"/>
	<path class="st7" d="M252.4,21.5c-0.9,0.3-1.3,0-1.6-0.7c-0.1-0.2-0.1-0.3-0.2-0.4c-0.4-0.5-0.5-1.7-1.3-1.5
		c-0.7,0.2-0.2,1.2-0.3,1.8c-0.1,0.4,0.2,0.9-0.5,0.9c-0.7,0-0.5-0.5-0.5-0.9c0-1.8,0-3.6,0-5.4c0-0.6,0.2-0.8,0.8-0.8
		c0.5,0.1,0.9,0,1.4,0.1c1.4,0.2,2.2,1.8,1.4,2.8c-0.8,1-0.5,1.6,0.1,2.4C251.8,20.4,252.1,20.9,252.4,21.5z"/>
	<path class="st5" d="M257.2,30.6c0,0.3-0.2,0.4-0.4,0.4c-0.4,0-0.7-0.1-0.8-0.6c-0.2-0.9-0.6-1.3-1.6-1.2c-0.8,0-1.3,0.2-1.4,1
		c-0.1,0.5-0.3,0.9-0.9,0.7c-0.7-0.3-0.1-0.7,0-1c0.6-1.7,1.2-3.5,1.8-5.2c0.1-0.3,0.1-0.8,0.7-0.8c0.4,0,0.5,0.4,0.6,0.7
		c0.7,1.9,1.3,3.8,2,5.6C257.1,30.4,257.2,30.6,257.2,30.6z"/>
	<path class="st5" d="M235.5,21.5c-0.9,0.3-1.3,0-1.4-0.7c-0.1-0.9-0.7-0.9-1.4-0.9c-0.7,0-1.3,0.1-1.4,1c-0.1,0.7-0.4,1.1-1.3,0.7
		c0.7-2.1,1.5-4.3,2.2-6.4c0.1-0.3,0.3-0.5,0.6-0.5c0.4,0,0.4,0.3,0.5,0.6C234,17.3,234.7,19.3,235.5,21.5z"/>
	<path class="st5" d="M277.2,21.5c-0.8,0.4-1.3,0.1-1.4-0.7c-0.2-0.9-0.8-0.9-1.5-1c-0.8,0-1.3,0.2-1.4,1c-0.1,0.8-0.5,1-1.3,0.7
		c0.7-2.1,1.5-4.2,2.2-6.2c0.1-0.3,0.1-0.7,0.6-0.7c0.5,0,0.5,0.4,0.6,0.6C275.8,17.3,276.5,19.4,277.2,21.5z"/>
	<path class="st5" d="M212,21.5c-0.8,0.4-1.3,0.1-1.4-0.7c-0.2-0.9-0.8-0.9-1.6-1c-0.8,0-1.3,0.2-1.4,1c-0.1,0.7-0.5,1-1.3,0.7
		c0.7-2.1,1.4-4.2,2.2-6.2c0.1-0.3,0.1-0.7,0.6-0.7c0.4,0,0.5,0.3,0.6,0.5C210.5,17.2,211.3,19.3,212,21.5z"/>
	<path class="st11" d="M219.4,24.1c0.1,1.1-0.6,1.1-1.2,1c-0.6-0.1-1,0.1-1,0.8c0,0.7,0.1,1.1,1,1c0.4,0,1-0.3,1.1,0.5
		c0,0.8-0.6,0.5-1,0.5c-0.9-0.1-1,0.4-1,1.1c0,0.9,0.3,1.1,1.1,1c0.2,0,0.5,0,0.8,0c0.4,0,0.5,0.2,0.5,0.6c0,0.3-0.1,0.5-0.4,0.5
		c-0.8,0-1.7,0-2.5,0c-0.5,0-0.5-0.4-0.5-0.7c0-1.8,0-3.7,0-5.5c0-0.5,0.2-0.8,0.7-0.7C217.6,24.1,218.5,24.1,219.4,24.1z"/>
	<path class="st12" d="M270.8,30.6c0,0.2,0,0.4-0.3,0.4c-0.5,0.1-0.8-0.1-0.9-0.6c-0.2-0.7-0.4-1.2-1.4-1.2c-0.9,0-1.5,0.1-1.7,1.2
		c-0.1,0.5-0.4,0.7-0.9,0.6c-0.6-0.2-0.1-0.6-0.1-0.8c0.6-1.9,1.3-3.7,1.9-5.5c0.1-0.3,0.1-0.6,0.5-0.7c0.3,0,0.5,0,0.6,0.3
		C269.3,26.4,270.1,28.5,270.8,30.6z"/>
	<path class="st5" d="M305.2,21.5c-0.8,0.3-1.3,0.1-1.4-0.7c-0.1-0.9-0.7-1-1.5-1c-0.8,0-1.3,0.2-1.4,1c-0.1,0.7-0.5,1-1.3,0.7
		c0.7-2.1,1.5-4.2,2.2-6.3c0.1-0.3,0.2-0.5,0.6-0.5c0.4,0,0.5,0.3,0.6,0.5C303.7,17.2,304.5,19.4,305.2,21.5z"/>
	<path class="st6" d="M209.1,27.5c0-0.8,0.1-1.7,0-2.5c-0.1-0.8,0.3-1,1-0.9c0.5,0.1,1.1,0,1.6,0c0.3,0,0.7-0.1,0.6,0.4
		c0,0.4-0.2,0.6-0.6,0.6c-0.3,0-0.5,0-0.8,0c-0.7-0.1-0.9,0.3-0.9,0.9c0,0.7,0.1,1,0.9,0.9c0.1,0,0.3,0,0.4,0c0.4,0,0.8-0.1,0.8,0.5
		c0,0.6-0.4,0.5-0.8,0.5c-0.5,0.1-1.3-0.3-1.3,0.8c0,1,0.2,1.4,1.3,1.3c0.4,0,1.1-0.3,1.1,0.5c0,0.7-0.7,0.4-1.1,0.5
		c-2.3,0.1-2.3,0-2.3-2.3C209.1,28.3,209.1,27.9,209.1,27.5z"/>
	<path class="st6" d="M234.1,27.5c0-0.4,0-0.8,0-1.1c0-2.6,0-2.7,2.7-2.3c0.2,0,0.5-0.1,0.6,0.3c0,0.3-0.1,0.6-0.4,0.7
		c-0.3,0-0.6,0.1-0.9,0c-0.7-0.1-0.9,0.2-0.9,0.9c0,0.7,0.2,1,0.9,0.9c0.1,0,0.2,0,0.3,0c0.4,0,0.9-0.1,0.9,0.6
		c0,0.6-0.5,0.4-0.8,0.4c-0.8-0.1-1.2,0.1-1.2,1c0,0.8,0.3,1.2,1.1,1c0.2,0,0.5,0,0.8,0c0.4,0,0.6,0.1,0.6,0.5
		c0,0.4-0.2,0.5-0.6,0.5c-0.7,0-1.4,0-2.1,0c-0.5,0-0.7-0.2-0.7-0.7C234.1,29.4,234.1,28.5,234.1,27.5z"/>
	<path class="st6" d="M273.8,27.6c0-2.5,1.9-4.1,4.2-3.6c0.5,0.1,0.9,0.3,0.8,0.9c-0.1,0.8-0.6,0.2-0.9,0.1c-1-0.2-2-0.1-2.5,0.9
		c-0.6,1.1-0.6,2.2,0.1,3.2c0.6,0.9,1.5,1.1,2.5,0.7c0.3-0.1,0.6-0.3,0.8,0.2c0.2,0.5-0.1,0.6-0.4,0.7
		C276.2,32,273.8,30.3,273.8,27.6z"/>
	<path class="st5" d="M284.7,29.2c0.6-1.7,1.2-3,1.6-4.4c0.2-0.6,0.5-0.9,1.1-0.7c0.5,0.2,0,0.7-0.1,0.9c-0.7,1.8-1.4,3.6-2.1,5.4
		c-0.1,0.3-0.2,0.7-0.6,0.7c-0.5,0-0.5-0.4-0.6-0.7c-0.7-1.8-1.3-3.5-1.9-5.3c-0.1-0.3-0.6-0.8,0-1c0.6-0.2,0.8,0.2,1,0.8
		C283.7,26.2,284.2,27.5,284.7,29.2z"/>
	<path class="st5" d="M282.4,15.9c-2.3-0.7-3.7,0.2-3.7,2.3c0,1.8,1.2,2.7,3,2.3c0.3-0.1,0.6-0.4,0.8,0.1c0.2,0.6-0.2,0.6-0.5,0.8
		c-1.7,0.8-3.6,0-4.2-1.8c-0.5-1.4-0.4-2.8,0.6-4c0.8-1,1.9-1.2,3.2-1.1C282.3,14.7,282.7,15.1,282.4,15.9z"/>
	<path class="st13" d="M237,18.5c0-0.5,0-0.9,0-1.4c0.1-1,0-1.8-1.3-1.5c-0.3,0.1-0.5-0.1-0.5-0.5c0-0.4,0.2-0.5,0.5-0.5
		c1.2,0,2.4,0,3.6,0c0.4,0,0.6,0.1,0.6,0.6c0,0.4-0.3,0.5-0.6,0.4c-1.3-0.3-1.3,0.6-1.2,1.4c0,1.2,0,2.3,0,3.5
		c0,0.4,0.3,1.1-0.6,1.1c-0.9,0-0.5-0.7-0.5-1.1C236.9,19.8,237,19.1,237,18.5z"/>
	<path class="st14" d="M292.2,27.1c0,0.4,0,0.8,0,1.1c-0.2,1.2,0.1,2,1.6,1.8c0.4-0.1,0.7,0.1,0.7,0.5c0,0.5-0.3,0.5-0.7,0.5
		c0,0-0.1,0-0.1,0c-2.6,0.2-2.6,0.2-2.6-2.4c0-1.1,0-2.3,0-3.4c0-0.4-0.4-1.2,0.6-1.2c0.9,0,0.5,0.8,0.5,1.3
		C292.2,25.9,292.2,26.5,292.2,27.1z"/>
	<path class="st8" d="M306.1,18.1c0-0.9,0-1.8,0-2.8c0-0.3-0.1-0.8,0.5-0.8c0.6,0,0.5,0.4,0.5,0.8c0,1.4,0.1,2.8,0,4.1
		c0,0.9,0.2,1.2,1.1,1.1c0.3,0,0.6,0,0.9,0c0.4,0,0.3,0.3,0.3,0.6c0,0.2-0.1,0.4-0.3,0.4c-0.1,0-0.3,0-0.4,0
		c-2.6,0.2-2.6,0.2-2.6-2.4C306.1,18.9,306.1,18.5,306.1,18.1z"/>
	<path class="st8" d="M202.8,18.1c0-1,0-1.9,0-2.9c0-0.4,0-0.6,0.5-0.6c0.5,0,0.5,0.3,0.5,0.6c0,1.4,0.1,2.7,0,4.1
		c-0.1,0.9,0.2,1.4,1.2,1.3c0.4,0,1.1-0.4,1.1,0.6c0,0.8-0.7,0.4-1,0.5c-2.3,0.1-2.3,0-2.3-2.3C202.8,18.9,202.8,18.5,202.8,18.1z"
		/>
	<path class="st15" d="M264.5,27.5c0,1,0,1.9,0,2.9c0,0.4-0.1,0.6-0.6,0.6c-0.4,0-0.6-0.2-0.6-0.6c0-1.9,0-3.8,0-5.7
		c0-0.4,0.1-0.6,0.6-0.6c0.5,0,0.6,0.3,0.6,0.7C264.5,25.7,264.5,26.6,264.5,27.5z"/>
	<path class="st15" d="M288.6,27.5c0-0.9,0-1.7,0-2.6c0-0.4,0-0.9,0.6-0.8c0.6,0,0.5,0.4,0.5,0.8c0,1.8,0,3.6,0,5.4
		c0,0.4,0,0.9-0.6,0.8c-0.6,0-0.5-0.4-0.5-0.8C288.6,29.3,288.6,28.4,288.6,27.5z"/>
	<path class="st8" d="M283.7,18c0-0.9,0-1.8,0-2.8c0-0.4,0-0.6,0.5-0.6c0.5,0,0.5,0.3,0.5,0.6c0,1.9,0,3.8,0,5.8
		c0,0.4,0,0.6-0.5,0.6c-0.5,0-0.5-0.3-0.5-0.6C283.7,20,283.7,19,283.7,18z"/>
	<path class="st8" d="M253.2,18c0-0.9,0-1.8,0-2.6c0-0.3-0.2-0.8,0.5-0.8c0.6,0,0.6,0.3,0.6,0.7c0,1.9,0,3.8,0,5.6
		c0,0.3,0,0.7-0.5,0.7c-0.6,0-0.6-0.3-0.6-0.7C253.2,19.9,253.2,19,253.2,18z"/>
	<path class="st7" d="M281,27.6c0,0.9,0,1.8,0,2.7c0,0.4,0,0.6-0.5,0.7c-0.5,0-0.5-0.3-0.5-0.6c0-1.9,0-3.8,0-5.7
		c0-0.4,0.1-0.6,0.6-0.6c0.4,0,0.5,0.2,0.5,0.6C281,25.6,281,26.6,281,27.6z"/>
	<path class="st16" d="M245.1,12.7c-0.2,0.3-0.3,0.6-0.5,0.7c-0.4,0.4-0.5,1-1.2,0.9c-0.2,0-0.3-0.2-0.2-0.4
		c0.4-0.5,0.4-1.4,1.4-1.3C244.7,12.7,244.8,12.7,245.1,12.7z"/>
	<path class="st17" d="M180,22.6c0-1.5,0-3.1,0-4.6c0-0.7,0.2-1,0.9-0.9c1.6,0.1,3.1,0,4.7,0c0.7,0,0.9,0.2,0.9,0.9
		c0,0.7-0.2,0.9-0.9,0.9c-0.9,0-1.8,0.1-2.6,0c-1-0.1-1.3,0.3-1.2,1.3c0,0.1,0,0.3,0,0.4c-0.2,1.3,0.2,1.9,1.6,1.6
		c0.5-0.1,1,0,1.5,0c0.5,0,0.7,0.1,0.7,0.7c0,0.6-0.2,0.8-0.7,0.7c-0.2,0-0.5,0-0.8,0c-2.6,0-2.5,0-2.4,2.6c0,0.6,0.2,0.7,0.7,0.7
		c1.1,0,2.2,0,3.3,0c0.6,0,0.8,0.2,0.7,0.7c0,0.5,0.1,0.9-0.7,0.9c-1.7,0-3.4,0-5,0c-0.7,0-0.7-0.4-0.7-0.9
		C180,25.8,180,24.2,180,22.6z"/>
	<path class="st18" d="M176.9,28.1c-1.1-1.8-1.7-3.8-2.5-5.7c-0.7-1.5-1.2-3-2.1-4.4c0,1.7,0,3.4,0,5c0,1.5,0,2.9,0,4.4
		c0,0.5-0.1,0.8-0.7,0.8c-0.6,0-0.5-0.4-0.5-0.8c0-3.1,0-6.2,0-9.3c0-0.4-0.4-1.2,0.5-1.1c0.7,0,1.6-0.5,2.1,0.6
		c0.9,2.2,1.8,4.5,2.7,6.7c0.5,1.1,0.9,2.2,1.3,3.4C177.7,28.5,177.2,28.2,176.9,28.1z"/>
	<path class="st19" d="M193.2,28.2c-2.2-1.5-4.4-3-6.6-4.6c-0.6-0.5-0.6-1.3,0.1-1.8c2.1-1.6,4.3-3,6.5-4.6c0.4,1.3,0.1,2.2-1.1,2.9
		c-1.3,0.8-2.4,1.7-3.7,2.7c1.3,1,2.5,1.9,3.8,2.7C193.3,26,193.6,26.9,193.2,28.2z"/>
	<path class="st18" d="M170.2,17.1c-1.4,3.3-2.7,6.6-4.1,10c1.2,0,2.3,0,3.3,0c0.4,0,0.8,0,0.7,0.6c0,0.5-0.2,0.6-0.7,0.6
		c-1.4,0-2.9,0-4.3,0c-0.5,0-0.8-0.1-0.6-0.7c1.4-3.3,2.8-6.6,4.1-9.9C169,16.8,169.5,17.1,170.2,17.1z"/>
	<path class="st20" d="M176.9,28.1c0.3,0,0.7,0,0.8-0.4c0.4-0.4,0.2-1,0.2-1.4c0-2.8,0-5.6,0-8.4c0-0.4-0.2-0.9,0.6-0.9
		c0.8,0,0.6,0.5,0.6,0.9c0,2.9-0.1,5.8,0,8.7c0,1.3-0.3,1.8-1.6,1.5C177.4,28.2,177.1,28.2,176.9,28.1z"/>
	<path class="st21" d="M245.7,18.2c0,1.5-0.8,2.5-2,2.5c-1.3,0-2.1-1-2-2.6c0-1.5,0.8-2.5,2-2.5C244.9,15.6,245.7,16.6,245.7,18.2z"
		/>
	<path class="st21" d="M223,18.1c0,1.5-0.8,2.6-2.1,2.6c-1.2,0-2.1-1-2.1-2.5c0-1.4,0.8-2.5,2-2.6C222.1,15.5,222.9,16.5,223,18.1z"
		/>
	<path class="st21" d="M291,18.1c0,1.5-0.8,2.5-2,2.5c-1.3,0-2.1-0.9-2.1-2.5c0-1.5,0.7-2.5,2-2.5C290.2,15.6,291,16.5,291,18.1z"/>
	<path class="st21" d="M260.6,18.2c0,1.5-0.8,2.5-2,2.5c-1.3,0-2.1-1-2.1-2.6c0-1.5,0.8-2.5,2-2.5C259.8,15.6,260.6,16.6,260.6,18.2
		z"/>
	<path class="st22" d="M226.2,16.7c0.2-0.4-0.3-1.1,0.6-1.1c0.6,0,1,0.4,1,1c0,0.7-0.3,1.1-1,1.2C225.8,17.9,226.4,17.1,226.2,16.7z
		"/>
	<path class="st21" d="M203.9,27.5c0-0.4,0.1-0.8,0-1.2c-0.2-1.2,0.5-1.3,1.4-1.1c1.2,0.3,1.9,1.4,1.7,2.9c-0.2,1.3-1.3,2.1-2.5,2
		c-0.5,0-0.5-0.3-0.5-0.7C203.9,28.7,203.9,28.1,203.9,27.5z"/>
	<path class="st22" d="M214.6,18.6c0.8,0,1.2,0.3,1.2,1c0,0.7-0.6,1-1.2,1c-1.1,0-0.5-0.8-0.6-1.3C213.8,18.7,214.1,18.4,214.6,18.6
		z"/>
	<path class="st23" d="M213.9,16.6c0.1-0.4-0.2-1,0.6-0.9c0.6,0.1,0.9,0.3,0.9,0.9c0,0.7-0.4,1-1,1
		C213.6,17.6,214.1,16.9,213.9,16.6z"/>
	<path class="st24" d="M259.6,25.1c0.9,0.1,1.2,0.4,1.2,1.1c0,0.7-0.5,1.1-1.1,1.1c-0.9,0-0.5-0.9-0.5-1.3
		C259.1,25.5,259,25,259.6,25.1z"/>
	<path class="st25" d="M249.6,15.6c0.6,0,1.1,0.4,1.1,1c0,0.7-0.4,1.2-1.1,1.2c-0.9,0-0.5-0.7-0.5-1.1
		C249,16.3,248.7,15.6,249.6,15.6z"/>
	<path class="st26" d="M254.3,26.1c0.5,0.5,0.5,1,0.6,1.5c0.1,0.2,0.1,0.5-0.2,0.6c-0.3,0.1-0.6,0.1-0.9,0c-0.3-0.1-0.2-0.4-0.1-0.6
		C254,27.1,254.1,26.7,254.3,26.1z"/>
	<path class="st27" d="M231.8,18.8c0.3-0.8,0.5-1.5,0.8-2.4c0.3,0.9,0.5,1.6,0.7,2.3C232.9,19,232.4,18.8,231.8,18.8z"/>
	<path class="st28" d="M275.1,18.8c-0.6,0.1-1,0.1-1.5,0c0.2-0.7,0.4-1.3,0.6-1.9c0.1,0,0.2,0,0.3,0C274.7,17.4,274.9,18,275.1,18.8
		z"/>
	<path class="st29" d="M208.3,18.8c0.3-0.8,0.5-1.4,0.8-2.4c0.3,1,0.5,1.6,0.7,2.3C209.4,19,209,18.8,208.3,18.8z"/>
	<path class="st30" d="M268.1,25.9c0.2,0.7,0.4,1.1,0.5,1.5c0.1,0.3,0.4,0.6,0.1,0.8c-0.3,0.1-0.8,0.2-1.1,0c-0.5-0.2-0.1-0.6,0-0.8
		C267.7,27,267.8,26.6,268.1,25.9z"/>
	<path class="st29" d="M301.6,18.8c0.2-0.7,0.5-1.4,0.7-2.2C303.4,18.9,303.4,18.9,301.6,18.8z"/>
</g>
</svg>
